<svg width="60" height="60" viewBox="0 0 60 60" fill="none" xmlns="http://www.w3.org/2000/svg">
<path d="M35.8592 47.575H24.1426" stroke="#DB2768" style="stroke:#DB2768;stroke:color(display-p3 0.8588 0.1529 0.4078);stroke-opacity:1;" stroke-width="3.76"/>
<path d="M31.8418 21.7983L26.8203 28.8283H33.8503L28.829 35.8583" stroke="#DB2768" style="stroke:#DB2768;stroke:color(display-p3 0.8588 0.1529 0.4078);stroke-opacity:1;" stroke-width="3.76" stroke-linecap="round" stroke-linejoin="round"/>
<path d="M12.4258 24.1417C12.4258 14.4352 20.2944 6.56665 30.0008 6.56665C39.7071 6.56665 47.5758 14.4352 47.5758 24.1417C47.5758 29.3453 45.3142 34.0209 41.7203 37.239C39.0941 39.5905 37.7809 40.7664 37.4273 41.2028C36.2865 42.6106 36.2362 42.7233 35.9484 44.5122C35.8591 45.0669 35.8591 45.903 35.8591 47.575C35.8591 49.7651 35.8591 50.8601 35.3881 51.6758C35.0797 52.2101 34.6359 52.6539 34.1016 52.9623C33.2859 53.4333 32.1909 53.4333 30.0008 53.4333C27.8107 53.4333 26.7157 53.4333 25.8999 52.9623C25.3657 52.6539 24.9219 52.2101 24.6134 51.6758C24.1424 50.8601 24.1424 49.7651 24.1424 47.575C24.1424 45.903 24.1424 45.0669 24.0532 44.5122C23.7654 42.7233 23.7151 42.6106 22.5743 41.2028C22.2206 40.7664 20.9074 39.5905 18.2812 37.239C14.6873 34.0209 12.4258 29.3453 12.4258 24.1417Z" stroke="#EA337E" style="stroke:#EA337E;stroke:color(display-p3 0.9176 0.2000 0.4941);stroke-opacity:1;" stroke-width="3.76"/>
</svg>
